<svg width="323" height="359" viewBox="0 0 323 359" fill="none" xmlns="http://www.w3.org/2000/svg">
<path fill-rule="evenodd" clip-rule="evenodd" d="M153.232 3.5688C156.436 3.17087 157.477 2.22503 156.336 0.751523C156.015 0.338263 155.379 0.0443293 154.921 0.0985184C154.464 0.152707 153.017 0.288455 151.706 0.400117C149.106 0.621799 148.136 1.79535 149.418 3.16813C149.979 3.76914 150.869 3.86274 153.232 3.5688ZM170.006 2.45601C170.169 2.00061 170.019 1.26167 169.672 0.813924C169.247 0.266013 168.08 -5.72205e-06 166.1 -5.72205e-06C162.989 -5.72205e-06 161.738 0.790933 162.313 2.39361C162.76 3.64379 169.561 3.69853 170.006 2.45601ZM181.32 4.37288C183.206 4.37945 184.049 3.08713 182.907 1.9404C181.873 0.901502 176.523 0.448832 175.831 1.34158C174.472 3.09588 176.755 4.35646 181.32 4.37288ZM138.939 5.12277C142.437 4.7024 143.727 4.0576 143.511 2.83698C143.389 2.15058 142.762 1.89661 141.052 1.84133C136.944 1.70777 135.055 2.68098 135.736 4.58143C135.999 5.31599 136.553 5.40959 138.939 5.12277ZM196.144 6.35106C197.299 5.15123 196.287 3.93006 193.631 3.31975C190.171 2.52553 189.12 2.58574 188.757 3.60055C188.292 4.89671 189.547 5.81135 192.676 6.4556C194.834 6.90006 195.639 6.87543 196.144 6.35106ZM126.444 7.62641C129.506 6.89294 130.621 5.99746 130.142 4.6597C129.589 3.11559 123.051 4.51301 122.741 6.24158C122.423 8.00628 123.375 8.36207 126.444 7.62641ZM209.449 8.64506C209.327 7.73972 208.718 7.25749 207.042 6.73968C205.808 6.35817 204.428 5.92302 203.976 5.77249C202.794 5.37949 201.744 6.25472 201.957 7.45509C202.084 8.16557 203.056 8.79504 205.101 9.48964C208.482 10.6375 209.687 10.4037 209.449 8.64506ZM114.275 11.1821C116.638 10.4464 117.036 10.1306 117.036 8.99263C117.036 7.89681 116.79 7.67075 115.631 7.70633C114.858 7.72986 113.248 8.12013 112.053 8.5728C110.309 9.23402 109.881 9.65713 109.881 10.719C109.881 12.2982 110.486 12.3617 114.275 11.1821ZM222.318 13.6534C222.318 12.8548 221.687 12.2303 220.146 11.5039C216.643 9.85254 215.219 9.60842 214.864 10.5975C214.35 12.0332 214.85 12.6955 217.231 13.729C220.433 15.1198 222.318 15.0919 222.318 13.6534ZM101.309 16.2364C104.494 14.7279 105.132 13.989 104.241 12.839C103.434 11.7973 102.984 11.8553 99.7876 13.411C97.797 14.3798 97.1045 15.012 97.1045 15.8599C97.1045 17.6027 98.215 17.7017 101.309 16.2364ZM234.584 19.5453C234.584 18.5682 233.96 17.9634 231.762 16.8084C228.079 14.8746 227.429 14.9162 227.429 17.0849C227.429 17.791 228.27 18.5326 230.112 19.4511C233.531 21.1562 234.584 21.178 234.584 19.5453ZM89.4874 22.1414C91.544 21.0253 92.0264 20.5064 91.8981 19.5469C91.6753 17.8774 90.6343 17.8835 87.5218 19.571C85.4601 20.6893 84.8387 21.3171 84.8387 22.2815C84.8387 23.9625 86.2078 23.9214 89.4874 22.1414ZM158.396 21.547C159.68 21.2716 159.987 20.9564 159.866 20.0417C159.729 19.0127 159.327 18.866 156.254 18.722C153.511 18.5934 152.735 18.7346 152.494 19.4062C151.68 21.6783 153.946 22.4999 158.396 21.547ZM170.478 21.7916C172.784 21.6356 172.999 21.5043 172.999 20.2525C172.999 18.9333 172.865 18.878 169.294 18.7231C165.633 18.5644 165.589 18.5792 165.589 19.9443C165.589 21.5951 166.774 22.0429 170.478 21.7916ZM142.079 23.0675C145.45 22.8327 146.679 22.2219 146.679 20.7807C146.679 19.8436 146.333 19.7095 143.996 19.7396C140.346 19.7872 138.897 20.4648 139.105 22.0281C139.255 23.1672 139.486 23.2476 142.079 23.0675ZM186.287 21.9C186.287 20.8283 185.959 20.4615 184.754 20.1857C183.911 19.9925 182.243 19.8053 181.049 19.7697C179.061 19.7106 178.877 19.82 178.877 21.0631C178.877 22.5957 179.652 22.9263 183.732 23.1332C186.147 23.2558 186.287 23.188 186.287 21.9ZM131.219 25.2225C133.026 24.6954 133.391 24.3626 133.391 23.2416C133.391 22.1261 133.149 21.9022 131.985 21.9383C131.213 21.963 129.545 22.2706 128.28 22.6225C126.327 23.1666 125.98 23.4693 125.98 24.6314C125.98 25.8027 126.201 25.9894 127.513 25.9275C128.357 25.8881 130.024 25.5706 131.219 25.2225ZM199.831 24.9893C199.831 23.8744 198.872 23.2307 196.155 22.5207C193.056 21.7117 192.703 21.7298 192.35 22.7156C191.805 24.2351 192.557 24.9735 195.391 25.7015C198.394 26.4732 199.831 26.2428 199.831 24.9893ZM242.972 26.7497C247.388 29.232 248.283 26.6517 244.038 23.6768C241.208 21.6937 239.962 21.4523 239.482 22.795C239.064 23.9592 240.105 25.1382 242.972 26.7497ZM77.4337 29.4131C79.0768 28.262 79.9834 27.2396 79.9834 26.5395C79.9834 24.8788 78.256 25.032 75.5115 26.9363C73.7473 28.1602 73.0839 28.9731 73.0839 29.9101C73.0839 31.7137 74.3585 31.5681 77.4337 29.4131ZM120.614 26.9073C120.614 26.3222 120.25 25.6938 119.805 25.511C119.361 25.3282 118.959 25.1952 118.911 25.2149C118.864 25.2351 117.503 25.7754 115.887 26.4158C113.41 27.3972 112.948 27.7902 112.948 28.915C112.948 30.1411 113.103 30.2265 114.864 29.9709C117.974 29.5199 120.614 28.1131 120.614 26.9073ZM212.516 28.9205C212.396 28.0458 211.675 27.4766 209.797 26.771C205.932 25.3194 204.941 25.4464 204.941 27.3928C204.941 28.036 205.899 28.7131 207.998 29.5538C211.403 30.9173 212.764 30.7268 212.516 28.9205ZM257.321 35.9306C258.915 35.2754 258.131 33.445 255.417 31.4882C253.945 30.4263 252.475 29.5576 252.15 29.5576C251.658 29.5576 250.938 30.7115 250.938 31.5002C250.938 32.214 256.675 36.1961 257.321 35.9306ZM100.883 35.5299C101.961 36.4878 107.524 33.5228 107.745 31.873C107.882 30.8533 107.671 30.6567 106.467 30.6781C104.633 30.7104 100.171 33.1735 100.171 34.1539C100.171 34.5627 100.491 35.1818 100.883 35.5299ZM224.873 34.7505C224.873 33.6065 224.391 33.1467 221.999 32.0137C218.245 30.2358 217.718 30.2851 217.718 32.416C217.718 33.1429 218.556 33.8462 220.544 34.7877C224.145 36.4933 224.873 36.4873 224.873 34.7505ZM65.9421 37.9252C67.6961 36.5223 68.4842 35.5042 68.4842 34.641C68.4842 32.8364 67.1319 33.0717 64.2678 35.3739C62.5501 36.7549 61.8402 37.7106 61.8402 38.6417C61.8402 40.5044 62.9605 40.309 65.9421 37.9252ZM92.6954 40.9483C94.9053 39.5892 95.5753 38.8891 95.4634 38.0566C95.2483 36.4566 94.1116 36.4911 91.2271 38.1841C89.5104 39.1918 88.6181 40.0889 88.5082 40.9176C88.2486 42.875 89.5482 42.8849 92.6954 40.9483ZM237.047 41.465C236.937 40.6346 236.048 39.743 234.328 38.7386C231.132 36.8721 229.984 36.802 229.984 38.4737C229.984 39.4228 230.687 40.1595 232.88 41.5082C236.009 43.4328 237.306 43.4196 237.047 41.465ZM269.187 44.5133C269.421 43.8597 268.743 42.8334 266.835 40.9554C263.931 38.0954 263.714 37.9887 262.795 38.9723C261.755 40.0862 262.088 40.7764 264.806 43.1449C267.647 45.6206 268.675 45.9413 269.187 44.5133ZM51.9228 49.6322C53.0508 50.0958 58.0184 44.7755 57.5855 43.5674C57.0877 42.1788 56.0227 42.5324 53.4795 44.9304C51.0622 47.2096 50.4591 49.0307 51.9228 49.6322ZM77.9442 50.219C79.3681 50.4084 83.9243 46.7126 83.7153 45.5379C83.4337 43.9533 81.6209 44.2615 79.0645 46.3289C76.528 48.3798 76.0701 49.9699 77.9442 50.219ZM248.23 50.7565C249.239 49.6755 248.71 48.699 245.96 46.5653C243.329 44.5248 241.736 44.3551 241.745 46.1154C241.749 46.9884 242.581 47.9644 244.603 49.4669C247.152 51.363 247.536 51.4993 248.23 50.7565ZM278.753 55.6494C280.114 55.09 279.662 53.7134 277.189 50.8813C274.774 48.1166 274.669 48.0487 273.553 48.5304C272.306 49.0695 272.948 50.7072 275.431 53.3264C277.09 55.0763 278.221 55.8678 278.753 55.6494ZM45.0657 58.078C46.4487 56.4666 47.5092 54.7506 47.4218 54.2646C47.1202 52.5863 45.7219 53.0735 43.3081 55.6981C40.6684 58.5685 40.4645 59.1542 41.7182 60.268C42.4464 60.9156 42.8635 60.643 45.0657 58.078ZM70.0036 57.5849C71.9861 55.6839 72.6638 54.6855 72.4251 54.0193C71.9222 52.6148 70.9042 52.8923 68.2859 55.1469C66.4675 56.7124 65.9355 57.5143 66.0433 58.5258C66.2646 60.608 67.0461 60.4224 70.0036 57.5849ZM258.563 60.21C260.422 60.21 259.774 58.2548 257.128 55.882C254.259 53.3094 252.983 53.0204 252.983 54.9444C252.983 56.4934 256.921 60.21 258.563 60.21ZM288.215 67.0734C289.255 66.3843 288.745 64.5074 286.861 62.093C284.941 59.6326 283.344 58.9938 282.814 60.4728C282.32 61.8488 287.164 67.7686 288.215 67.0734ZM59.6871 67.7045C62.1218 65.0963 62.4351 64.5358 61.8673 63.8029C61.5024 63.3322 60.9065 62.9468 60.5436 62.9468C59.6027 62.9468 55.7073 67.8332 55.7073 69.0127C55.7073 71.067 56.9191 70.6685 59.6871 67.7045ZM269.778 69.3875C269.775 68.8132 269.255 68.2416 267.478 66.2075C265.21 63.6103 264.29 63.0612 263.545 63.8593C262.727 64.7345 263.369 66.1719 265.649 68.5781C268.256 71.3275 269.043 71.674 269.538 70.2914C269.677 69.902 269.78 69.6445 269.778 69.3875ZM33.1469 72.2208C34.2197 72.1809 37.8197 67.1528 37.8197 65.6941C37.8197 63.6409 35.9813 64.4756 33.7832 67.5272C31.6484 70.4906 31.4052 72.2854 33.1469 72.2208ZM296.63 79.1904C297.929 78.6562 297.586 77.1093 295.527 74.2089C293.379 71.1836 292.492 70.6296 292 72.0041C291.364 73.7786 295.224 79.7684 296.63 79.1904ZM51.4071 77.6578C52.5315 75.9199 52.6603 75.3999 52.1334 74.7201C51.7818 74.2658 51.3197 73.8941 51.1076 73.8941C50.6441 73.8941 45.9969 79.8626 45.9969 80.4581C45.9969 80.688 46.3485 81.1883 46.7783 81.5704C47.4264 82.1467 47.7718 82.052 48.8006 81.017C49.4829 80.3306 50.6558 78.8188 51.4071 77.6578ZM277.765 82.4981C279.451 82.2994 279.201 80.8123 276.98 77.8237C273.257 72.8175 271.216 74.7984 274.831 79.9086C276.133 81.7482 277.074 82.5791 277.765 82.4981ZM27.7852 81.5479C29.4089 78.8483 29.6481 78.1187 29.1278 77.4476C28.7798 76.9982 28.329 76.6309 28.1261 76.6309C27.0876 76.6309 23.3215 82.9798 23.7124 84.0713C24.3053 85.7259 25.8457 84.7713 27.7852 81.5479ZM201.711 105.408C206.957 98.5912 204.334 87.6133 196.816 84.9169C191.371 82.9645 184.994 85.1934 182.206 90.0228C180.843 92.3852 180.667 93.1701 180.677 96.8407C180.701 105.1 184.947 109.491 192.88 109.461C196.739 109.446 199.621 108.123 201.711 105.408ZM304.128 92.5045C305.61 92.5045 305.367 90.5449 303.471 87.1945C301.747 84.1479 300.002 83.2748 300.002 85.4588C300.002 87.3746 303.006 92.5045 304.128 92.5045ZM72.8284 90.5887V87.8519V85.1151L64.7789 84.9646L56.7295 84.8135V87.8081V90.8022L59.1571 90.9691L61.5847 91.1361L61.7252 100.031L61.8658 108.925H64.9195H67.9731V99.924V90.9226L70.4008 90.7557L72.8284 90.5887ZM89.4383 90.8624V87.8519V84.8414H82.7943H76.1504V96.8834V108.925H82.7943H89.4383V106.214V103.502L85.9886 103.34L82.5388 103.178V101.262V99.3465L85.0942 99.2929C87.3083 99.2465 88.2446 99.2513 88.6398 98.7913C88.9492 98.4313 88.9272 97.7865 88.9272 96.6097V94.1466H85.6053H82.2833V92.5045V90.8624H85.8608H89.4383ZM111.914 93.0157C111.894 90.6177 110.06 87.16 108.261 86.1277C106.971 85.3877 105.043 85.1003 100.299 84.9399L94.038 84.7286V96.827V108.925H97.36H100.682V105.094C100.682 102.407 100.873 101.255 101.321 101.237C104.6 101.104 107.116 100.586 108.385 99.7839C110.047 98.7319 111.932 95.1182 111.914 93.0157ZM129.849 99.8742C134.484 97.3071 134.565 89.3161 129.989 86.1025C128.873 85.3198 127.279 85.0751 122.298 84.9219L116.014 84.7286V96.827V108.925H119.081H122.147V105.172V101.418L125.226 101.073C126.92 100.884 129 100.344 129.849 99.8742ZM143.868 98.7992L143.725 91.8203L143.582 84.8414H140.531H137.479V96.8834V108.925L140.674 108.908L143.868 108.892L146.679 104.164C148.225 101.564 149.937 98.6158 150.485 97.613C151.032 96.6097 151.664 95.7887 151.89 95.7887C152.116 95.7887 152.301 98.7444 152.301 102.357V108.925H155.367H158.434V96.8834V84.8414H155.42H152.406L148.137 91.8203L143.868 98.7992ZM177.854 90.8624V87.8519V84.8414H169.933H162.011V87.8519V90.8624H164.311H166.611V99.8939V108.925H169.933H173.255V99.8939V90.8624H175.555H177.854ZM225.153 88.3615C224.674 87.5793 223.323 86.4725 222.15 85.9022C220.469 85.0844 218.803 84.8627 214.269 84.8534L208.519 84.8414V96.8834V108.925H211.841H215.163V105.094C215.163 102.407 215.354 101.255 215.802 101.237C221.536 101.004 224.23 99.7133 225.644 96.5238C226.685 94.175 226.464 90.5044 225.153 88.3615ZM237.011 97.971C236.8 97.9748 236.628 95.0224 236.628 91.4098V84.8414H233.562H230.495V96.9097V108.977L233.631 108.815L236.766 108.652L240.484 102.434C242.529 99.0137 244.453 95.9474 244.759 95.619C245.162 95.1882 245.316 96.9562 245.316 101.974V108.925H248.383H251.449V96.8834V84.8414H248.361H245.274L241.334 91.4027C239.168 95.0114 237.223 97.9672 237.011 97.971ZM272.915 108.925V96.8834V84.8414L267.42 84.8534C258.886 84.872 256.049 86.8491 256.049 92.7782C256.049 95.9655 257.128 98.2184 259.104 99.155C259.954 99.5578 260.649 100.018 260.649 100.176C260.649 100.335 259.499 102.154 258.093 104.219C256.688 106.283 255.538 108.199 255.538 108.475C255.538 108.751 256.963 108.904 258.704 108.815L261.87 108.652L263.939 104.957C265.076 102.925 266.181 101.262 266.394 101.262C266.607 101.262 266.782 102.987 266.782 105.094V108.925H269.848H272.915ZM38.941 94.5839C39.9902 94.8001 43.4415 89.5378 43.4415 87.7222C43.4415 85.3444 41.6027 86.2667 39.636 89.6308C37.7067 92.932 37.5161 94.29 38.941 94.5839ZM287.225 94.348C287.225 93.3206 285.494 90.0671 283.987 88.2624C282.905 86.9668 282.503 86.7966 281.944 87.396C281.235 88.154 281.66 89.5991 283.405 92.3748C285.204 95.2353 287.225 96.2797 287.225 94.348ZM18.0881 98.3503C19.1444 97.9157 21.5639 92.6933 21.3676 91.2707C21.1417 89.6358 20.1232 89.4896 19.2395 90.9653C17.2974 94.2079 16.1541 97.4352 16.7291 98.0509C17.0475 98.3919 17.6593 98.5266 18.0881 98.3503ZM187.186 97.5599C186.953 93.6797 188.196 91.1711 190.74 90.3857C191.664 90.0999 192.485 89.8443 192.564 89.8169C193.243 89.5843 196.352 91.6101 197.039 92.7328C198.263 94.7334 198.19 99.3235 196.905 101.184C194.726 104.339 190.92 104.742 188.573 102.067C187.672 101.04 187.327 99.9196 187.186 97.5599ZM101.993 95.7887C100.761 95.7887 100.682 95.625 100.682 93.0519C100.682 90.3205 100.686 90.315 102.369 90.315C104.426 90.315 105.282 91.1454 105.282 93.1422C105.282 94.8248 104.084 95.7887 101.993 95.7887ZM123.583 95.7887C122.201 95.7887 122.147 95.6863 122.147 93.0519C122.147 90.3271 122.155 90.315 123.808 90.3232C126.058 90.3347 126.875 90.997 126.875 92.8099C126.875 94.6151 125.578 95.7887 123.583 95.7887ZM216.474 95.7887C215.242 95.7887 215.163 95.625 215.163 93.0519C215.163 90.3205 215.167 90.315 216.85 90.315C218.907 90.315 219.763 91.1454 219.763 93.1422C219.763 94.8248 218.565 95.7887 216.474 95.7887ZM262.911 95.3699C261.852 94.5927 261.64 92.9101 262.438 91.6063C263.017 90.6593 263.701 90.315 265.005 90.315H266.782V93.0519C266.782 95.7766 266.774 95.7887 265.121 95.7805C264.207 95.7755 263.213 95.5911 262.911 95.3699ZM310.844 106.736C312.184 106.736 312.006 104.569 310.372 101.001C308.988 97.9792 307.588 97.0794 306.967 98.8129C306.505 100.102 309.751 106.736 310.844 106.736ZM31.9014 108.378C32.9123 108.378 36.3973 101.662 35.9844 100.51C35.3251 98.6689 33.937 99.6126 32.2086 103.078C30.4832 106.537 30.3764 108.378 31.9014 108.378ZM292.969 108.925C294.544 108.925 294.516 107.542 292.874 104.056C291.741 101.654 291.013 100.715 290.284 100.715C288.871 100.715 288.981 102.251 290.653 105.903C291.577 107.92 292.347 108.925 292.969 108.925ZM11.2759 112.757C12.7177 112.757 15.7044 105.96 14.7839 104.772C13.6391 103.295 12.9931 103.902 11.3086 108.037C9.91442 111.46 9.90573 112.757 11.2759 112.757ZM315.449 118.231C317.071 118.231 317.077 117.976 315.554 113.989C314.812 112.044 314.249 111.793 313.32 112.991C312.854 113.593 312.858 114.282 313.339 116.001C313.882 117.945 314.153 118.231 315.449 118.231ZM29.1651 116.768C29.4503 115.963 29.5668 114.978 29.4237 114.579C28.9198 113.171 27.2102 113.781 26.6261 115.575C25.837 118 25.9004 118.231 27.3554 118.231C28.2835 118.231 28.7915 117.82 29.1651 116.768ZM297.225 118.231C298.477 118.231 298.761 117.495 298.158 115.812C297.813 114.848 296.15 114.64 295.654 115.499C295.02 116.599 295.957 118.231 297.225 118.231ZM323 126.441V123.704V120.967H161.5H5.53131e-05V123.704V126.441H161.5H323ZM216.185 143.957V139.578V135.199H212.863H209.541V139.495V143.79L204.303 144.134C194.32 144.789 187.243 147.674 181.9 153.268C176.983 158.414 174.577 164.893 174.585 172.967C174.594 181.839 177.298 188.913 182.671 194.12C188.15 199.43 194.393 201.869 203.792 202.37L209.541 202.677V208.093V213.509L212.846 213.412L216.15 213.314L216.296 208.056L216.441 202.798L222.063 202.455C228.99 202.031 231.62 201.355 237.018 198.612C242.398 195.877 246.073 192.05 248.601 186.55C253.12 176.716 252.027 164.119 245.924 155.67C240.825 148.611 229.976 143.957 218.626 143.957H216.185ZM149.066 167.67C146.091 152.748 136.758 141.779 123.584 137.717C114.845 135.023 104.246 135.54 96.391 139.042C87.9307 142.814 80.5947 150.372 77.2747 158.736C74.8435 164.859 74.3984 167.495 74.4076 175.704C74.4153 182.855 74.5522 184.075 75.7911 188.019C81.2356 205.363 94.2383 215.099 111.972 215.11C123.092 215.117 131.567 211.577 138.807 203.902C143.42 199.012 145.87 194.771 147.97 188.046C149.741 182.372 150.221 173.461 149.066 167.67ZM13.1986 171.872C12.9666 171.872 12.777 164.237 12.777 154.904V137.936H9.45496H6.13297V175.73V213.524L9.32719 213.361L12.5214 213.198L12.777 195.192L13.0325 177.184L19.4209 184.544C22.9346 188.591 29.3741 196.073 33.7311 201.168C38.088 206.264 42.2839 211.134 43.0551 211.991C44.3993 213.485 44.617 213.54 48.3023 213.319C50.4172 213.192 52.2581 212.969 52.394 212.824C52.5294 212.679 45.2236 204.116 36.1587 193.796C27.0932 183.475 19.6141 174.858 19.5375 174.647C19.4608 174.436 26.6481 166.338 35.5086 156.653C44.3691 146.968 51.6187 138.795 51.6187 138.49C51.6187 138.166 50.0604 137.936 47.8741 137.936H44.1299L40.3265 142.178C21.3666 163.323 13.5563 171.872 13.1986 171.872ZM316.867 143.957V140.946V137.936H297.954H279.04L279.172 175.567L279.303 213.198H297.957H316.612L316.766 210.325L316.921 207.451H301.561H286.203V190.756V174.062H301.024H315.845V171.051V168.041H301.024H286.203V155.999V143.957H301.535H316.867ZM81.3879 173.792C82.1601 157.589 92.1496 145.102 106.569 142.316C110.01 141.651 117.174 142.089 120.614 143.175C130.358 146.251 137.64 153.884 140.901 164.44C142.082 168.263 142.269 169.788 142.285 175.704C142.301 181.953 142.169 182.951 140.755 187.223C137.185 198.011 129.658 205.592 119.868 208.262C118.188 208.72 114.625 209.093 111.926 209.093C102.861 209.093 96.6108 206.385 90.4605 199.792C83.9545 192.817 80.8988 184.06 81.3879 173.792ZM181.907 169.692C183.558 158.295 189.913 152.234 201.891 150.63C203.991 150.349 206.571 150.087 207.625 150.048L209.541 149.978V173.323V196.669L204.814 196.326C199.411 195.935 193.38 194.297 190.333 192.394C187.577 190.673 184.666 187.16 183.424 184.058C181.91 180.275 181.262 174.141 181.907 169.692ZM216.185 196.669V173.323V149.978H217.348C223.466 149.978 232.439 152.552 236.34 155.428C243.846 160.958 246.447 173.89 242.188 184.494C239.439 191.339 231.896 195.534 220.913 196.327L216.185 196.669ZM323 229.345V226.882V224.419H161.5H5.53131e-05V226.882V229.345H161.5H323ZM9.05223 239.59C9.7473 238.846 9.72481 238.421 8.83605 235.557C7.98715 232.821 7.64422 232.331 6.47692 232.183C5.72564 232.088 5.11082 232.123 5.11082 232.262C5.11082 233.272 7.29311 239.772 7.72906 240.061C8.02957 240.259 8.62497 240.048 9.05223 239.59ZM297.254 243.831C298.288 243.133 300.549 237.2 300.177 236.161C300.021 235.724 299.493 235.366 299.006 235.366C297.791 235.366 294.999 242.817 295.866 243.746C296.265 244.173 296.708 244.2 297.254 243.831ZM28.3724 245.219C29.6327 245.219 29.6092 243.5 28.3014 240C27.3467 237.447 26.7171 236.461 26.0409 236.461C24.4852 236.461 24.3794 237.463 25.5896 240.734C26.9225 244.336 27.4709 245.219 28.3724 245.219ZM316.502 242.288C317.037 240.569 317.345 238.801 317.187 238.359C316.716 237.045 315.347 237.445 314.789 239.061C314.503 239.889 313.898 241.624 313.445 242.918C312.812 244.726 312.761 245.419 313.225 245.916C314.242 247.006 315.449 245.669 316.502 242.288ZM155.367 249.208C155.367 247.129 154.428 245.043 152.895 243.714C151.871 242.826 151.542 242.851 150.75 243.874C150.207 244.573 150.284 244.99 151.198 246.314C152.635 248.396 152.599 250.773 151.099 252.703C149.207 255.139 148.723 256.456 148.723 259.168C148.723 263.035 151.125 267.015 152.993 266.247C154.119 265.785 154.053 264.574 152.812 262.884C151.351 260.895 151.436 257.252 152.991 255.251C154.824 252.891 155.367 251.509 155.367 249.208ZM162.394 254.634C164.813 250.872 164.946 247.941 162.831 244.972C160.403 241.562 158.434 243.083 160.407 246.844C161.837 249.567 161.792 250.149 159.966 252.61C157.113 256.454 156.767 260.426 158.949 264.259C160.192 266.441 161.325 266.989 162.341 265.9C163.017 265.176 162.954 264.848 161.791 263.012C159.968 260.135 160.108 258.19 162.394 254.634ZM170.368 255.251C173.19 251.616 173.536 248.364 171.448 245.072C170.049 242.868 169.155 242.546 168.126 243.874C167.584 244.573 167.661 244.99 168.575 246.314C170.012 248.396 169.975 250.773 168.476 252.703C166.622 255.09 166.1 256.448 166.1 258.884C166.1 262.82 168.589 267.131 170.425 266.376C171.503 265.933 171.409 264.546 170.188 262.884C168.727 260.895 168.813 257.252 170.368 255.251ZM14.5749 254.475C15.269 253.732 15.1969 253.242 13.8962 249.842C12.4422 246.042 11.0613 244.76 10.402 246.6C10.0483 247.586 11.9643 253.192 13.1035 254.505C13.7138 255.208 13.8942 255.205 14.5749 254.475ZM292.93 254.865C293.83 252.909 294.397 250.984 294.219 250.486C293.596 248.748 292.336 249.628 290.809 252.866C288.981 256.745 288.83 258.356 290.296 258.356C291.049 258.356 291.751 257.425 292.93 254.865ZM35.6128 258.764C36.3503 257.975 36.2558 257.581 34.5401 254.295C32.6869 250.747 31.4491 249.84 30.8266 251.578C30.5031 252.48 32.92 257.91 34.1399 259.024C34.6357 259.476 35.0098 259.41 35.6128 258.764ZM308.651 260.845C309.574 260.234 311.756 255.227 311.756 253.721C311.756 252.702 311.487 252.335 310.739 252.335C309.98 252.335 309.33 253.262 308.172 255.997C306.829 259.17 306.719 259.764 307.351 260.441C307.753 260.87 308.337 261.053 308.651 260.845ZM20.5141 268.756C21.8859 268.756 21.7121 266.823 20.048 263.562C18.6303 260.785 17.1032 259.792 16.564 261.297C16.1041 262.581 19.3739 268.756 20.5141 268.756ZM224.825 266.376C223.624 265.274 221.82 264.128 220.818 263.83C218.383 263.106 217.289 263.168 215.167 264.154C212.9 265.207 211.074 267.032 211.074 268.245C211.074 269.923 212.572 269.885 214.797 268.15C217.445 266.086 219.897 266.216 222.627 268.57C225.705 271.223 227.528 272.038 230.384 272.039C234.651 272.04 239.184 269.445 239.184 267.001C239.184 265.353 237.782 265.255 236.085 266.785C232.887 269.667 228.232 269.498 224.825 266.376ZM99.6154 268.342C98.8881 267.817 97.1755 266.587 95.8099 265.608C91.9544 262.846 87.3981 263.34 84.3163 266.852C83.1127 268.225 83.2364 269.85 84.5443 269.85C84.9623 269.85 86.1516 269.235 87.187 268.482C90.0557 266.397 92.3147 266.63 95.489 269.336C99.2612 272.553 102.261 273.273 106.385 271.949C107.479 271.598 109.231 270.509 110.277 269.529C112.103 267.819 112.144 267.705 111.277 266.755C110.537 265.943 110.213 265.885 109.488 266.433C105.592 269.38 102.011 270.072 99.6154 268.342ZM282.613 271.766C283.527 271.766 287.225 266.206 287.225 264.831C287.225 264.152 286.848 263.829 286.055 263.829C285.186 263.829 284.452 264.595 283.2 266.806C281.494 269.822 281.264 271.766 282.613 271.766ZM42.5471 272.582C43.994 272.59 43.6209 270.394 41.6389 267.243C39.8348 264.374 38.5572 263.655 38.0037 265.199C37.5928 266.346 41.4268 272.576 42.5471 272.582ZM301.024 274.648C302.02 274.851 305.237 269.14 305.019 267.557C304.725 265.421 303.676 265.909 301.797 269.055C299.922 272.194 299.623 274.362 301.024 274.648ZM183.987 272.423C183.987 271.128 183.711 269.774 183.374 269.413C182.652 268.64 139.725 268.462 138.598 269.227C138.066 269.589 137.96 272.668 138.087 284.166L138.246 298.649L140.164 302.802C142.239 307.296 146.565 312.17 150.281 314.2C156.816 317.771 164.593 317.741 171.55 314.118C175.293 312.169 179.931 306.878 181.692 302.549C183.098 299.094 183.267 298.902 185.239 298.551C193.681 297.047 197.722 287.724 193.224 280.128C191.698 277.55 187.52 274.777 185.165 274.777C184.118 274.777 183.987 274.515 183.987 272.423ZM142.335 298.04L142.172 285.587L142.01 273.135H160.954H179.899V283.186C179.899 293.983 179.466 297.759 177.806 301.43C176.279 304.809 172.474 308.608 168.655 310.567C165.687 312.089 164.842 312.27 160.733 312.258C156.853 312.248 155.68 312.02 153.233 310.802C149.366 308.877 146.176 305.627 144.067 301.462L142.335 298.04ZM28.5431 282.217C29.5837 281.528 29.1764 279.759 27.27 276.684C25.2554 273.433 24.9871 273.256 24.0099 274.517C23.4809 275.199 23.529 275.683 24.271 277.158C25.746 280.092 27.9002 282.643 28.5431 282.217ZM97.4045 279.671C96.4605 278.783 94.8644 277.689 93.8571 277.238C90.7268 275.837 88.179 276.325 84.9818 278.937C83.1465 280.436 82.8971 281.395 84.071 282.439C84.6991 282.997 85.1637 282.851 86.6622 281.627C90.1007 278.818 92.0326 279.125 96.8694 283.247C98.4655 284.607 99.3374 284.908 102.159 285.074C105.098 285.246 105.903 285.066 108.348 283.693C110.341 282.574 111.209 281.745 111.33 280.845C111.632 278.603 110.621 278.29 108.401 279.937C104.473 282.852 100.69 282.761 97.4045 279.671ZM226.057 280.169C225.265 279.372 223.813 278.203 222.829 277.572C220.09 275.812 216.484 276.005 213.44 278.072C211.558 279.35 211.043 280.001 211.168 280.94C211.384 282.559 212.947 282.803 214.314 281.431C217.055 278.682 219.803 278.874 223.465 282.071C226.189 284.449 229.163 285.433 232.167 284.951C235.131 284.474 239.184 281.757 239.184 280.245C239.184 278.464 237.917 278.404 235.561 280.073C233.803 281.319 232.811 281.619 230.439 281.619C227.959 281.619 227.269 281.39 226.057 280.169ZM273.966 283.957C274.939 284.158 279.145 278.735 278.934 277.551C278.603 275.69 276.771 276.404 274.794 279.165C272.823 281.915 272.522 283.659 273.966 283.957ZM51.3172 284.518C53.0799 284.247 52.7814 282.858 50.3124 279.84C47.9732 276.98 47.4979 276.636 46.8489 277.331C45.6105 278.657 49.4344 284.808 51.3172 284.518ZM183.987 294.503V286.761V279.019L185.635 279.372C187.839 279.844 190.541 282.735 190.948 285.058C191.655 289.095 189.149 293.195 185.393 294.147L183.987 294.503ZM292.68 287.766C293.498 288.054 297.446 282.354 297.446 280.885C297.446 278.823 295.727 279.549 293.69 282.471C291.806 285.174 291.398 287.313 292.68 287.766ZM36.8829 294.482C38.3859 294.482 38.0067 292.532 35.922 289.541C34.1292 286.97 32.643 286.152 31.9489 287.355C31.2738 288.524 35.3987 294.482 36.8829 294.482ZM264.417 295.029C265.895 295.029 269.993 290.49 269.747 289.125C269.438 287.405 268.06 287.871 265.626 290.517C262.932 293.447 262.508 295.029 264.417 295.029ZM61.5591 295.599C62.705 294.581 62.6038 294.309 59.9401 291.239C57.6182 288.564 56.7785 288.044 56.0482 288.826C55.2249 289.708 55.8806 291.148 58.2371 293.634C60.3883 295.903 60.8861 296.197 61.5591 295.599ZM283.971 299.134C285.366 299.134 288.863 294.71 288.655 293.209C288.385 291.258 287.399 291.629 284.973 294.594C282.491 297.629 282.159 299.134 283.971 299.134ZM46.7272 305.793C48.1501 305.208 47.5889 303.534 45.0851 300.892C42.3682 298.027 42.2865 297.987 41.4243 299.099C40.6429 300.108 41.1989 301.219 43.8759 303.997C45.1868 305.357 46.2141 306.004 46.7272 305.793ZM253.729 305.223C254.874 305.693 259.707 301.099 259.521 299.718C259.28 297.916 258.007 298.18 255.41 300.571C252.985 302.804 252.32 304.644 253.729 305.223ZM71.517 305.853C73.0752 305.531 72.3388 303.439 69.8585 301.14C68.5062 299.886 67.2224 298.861 67.0052 298.861C66.3561 298.861 65.9288 299.53 65.9288 300.548C65.9288 301.771 70.458 306.071 71.517 305.853ZM273.982 310.355C275.324 310.355 279.672 305.643 279.453 304.425C279.149 302.732 277.758 303.211 275.337 305.843C272.728 308.68 272.225 310.355 273.982 310.355ZM248.641 309.877C248.79 309.461 248.65 308.784 248.329 308.37C247.556 307.373 247.52 307.385 244.422 309.647C241.711 311.626 240.96 313.354 242.529 313.999C243.395 314.354 248.197 311.116 248.641 309.877ZM83.033 314.543C84.5616 313.915 83.7684 312.265 80.9545 310.218C77.4398 307.663 76.6614 307.604 76.6614 309.893C76.6614 311.149 81.9327 314.995 83.033 314.543ZM56.9794 316.181C58.4043 315.595 57.77 313.931 55.229 311.587C53.8419 310.308 52.4548 309.261 52.1467 309.261C51.4358 309.261 50.9155 310.672 51.2661 311.65C51.7511 313.004 56.1739 316.512 56.9794 316.181ZM266.552 318.293C268.246 316.743 269.324 315.338 269.23 314.805C268.933 313.137 267.084 313.619 264.61 316.007C262.002 318.526 261.756 319.148 262.948 320.208C263.585 320.774 264.192 320.452 266.552 318.293ZM234.195 320.335C236.254 319.09 236.884 318.405 236.884 317.413C236.884 315.618 235.819 315.655 232.667 317.56C230.853 318.658 229.984 319.531 229.984 320.26C229.984 322.033 231.349 322.057 234.195 320.335ZM94.8225 322.192C96.4585 321.52 95.5891 319.775 92.768 318.07C89.1899 315.908 88.4162 315.908 88.4162 318.069C88.4162 319.232 93.7196 322.645 94.8225 322.192ZM67.7278 325.479C69.2202 324.866 68.5042 323.054 65.9881 321.075C63.0305 318.75 61.8402 318.566 61.8402 320.435C61.8402 321.998 66.4941 325.986 67.7278 325.479ZM107.837 327.123C107.837 326.079 107.315 325.591 105.154 324.611C103.678 323.943 102.22 323.283 101.914 323.145C101.119 322.788 100.097 324.29 100.454 325.288C100.797 326.244 105.192 328.418 106.782 328.418C107.551 328.418 107.837 328.067 107.837 327.123ZM222.446 326.781C224.39 325.859 224.873 325.363 224.873 324.287C224.873 322.516 223.389 322.541 220.114 324.367C218.16 325.455 217.687 325.985 217.815 326.941C218.013 328.415 219.077 328.377 222.446 326.781ZM255.254 327.593C257.329 326.063 258.093 325.156 258.093 324.222C258.093 322.462 256.849 322.621 253.892 324.759C251.117 326.764 250.591 327.734 251.658 328.876C252.327 329.593 252.746 329.444 255.254 327.593ZM75.9214 332.169C80.5185 335.115 82.0809 333.16 77.8114 329.806C74.9243 327.537 73.0839 327.267 73.0839 329.111C73.0839 330.034 73.8127 330.819 75.9214 332.169ZM206.73 333.004C209.134 332.899 212.352 331.056 212.352 329.782C212.352 328.336 210.954 328.237 207.752 329.456C205.643 330.259 205.197 330.659 205.197 331.75C205.197 332.868 205.433 333.061 206.73 333.004ZM120.358 331.992C120.358 331.218 119.709 330.646 118.059 329.969C114.785 328.625 112.948 328.668 112.948 330.088C112.948 331.422 115.826 332.918 118.57 333.011C120.028 333.06 120.358 332.872 120.358 331.992ZM243.798 335.397C245.689 334.186 246.594 333.254 246.594 332.518C246.594 330.941 244.975 331.012 242.106 332.715C240.112 333.898 239.688 334.41 239.806 335.492C240.015 337.414 240.67 337.399 243.798 335.397ZM133.304 335.184C133.177 334.472 132.363 333.982 130.573 333.536C127.037 332.657 126.249 332.671 125.907 333.625C125.42 334.985 126.656 335.983 129.652 336.65C132.695 337.326 133.623 336.954 133.304 335.184ZM194.022 336.772C197.051 336.525 199.575 335.34 199.575 334.163C199.575 332.807 197.459 332.544 194.464 333.529C192.801 334.075 192.42 334.452 192.42 335.552C192.42 336.728 192.627 336.885 194.022 336.772ZM91.9937 339.391C91.9937 338.591 91.1525 337.832 88.9421 336.636C86.5091 335.321 85.7525 334.912 85.3909 335.137C85.2272 335.239 85.1444 335.471 85.0237 335.808C84.5111 337.239 85.2276 338.186 87.9327 339.654C90.783 341.201 91.9937 341.123 91.9937 339.391ZM145.904 339.171C147.124 338.669 146.857 336.689 145.529 336.396C141.525 335.51 139.509 335.486 139.21 336.321C138.611 337.991 139.426 338.726 142.295 339.111C143.854 339.319 145.478 339.346 145.904 339.171ZM183.355 339.016C186.025 338.587 186.287 338.422 186.287 337.176C186.287 336.037 186.031 335.796 184.754 335.737C183.911 335.697 182.301 335.82 181.176 336.01C179.565 336.282 179.097 336.616 178.969 337.589C178.749 339.246 179.8 339.588 183.355 339.016ZM156.254 340.349C159.561 340.194 159.711 340.127 159.711 338.818C159.711 337.509 159.561 337.443 156.254 337.288C152.647 337.119 151.779 337.667 152.494 339.664C152.735 340.336 153.511 340.477 156.254 340.349ZM169.023 340.452C172.395 340.442 173.434 339.949 173.172 338.479C173.018 337.613 172.442 337.424 169.537 337.288C166.798 337.159 166.023 337.3 165.782 337.972C165.122 339.817 165.962 340.461 169.023 340.452ZM231.516 342.333C234.012 341.133 234.584 340.617 234.584 339.564C234.584 337.85 233.065 337.886 229.856 339.675C228.241 340.576 227.429 341.38 227.429 342.081C227.429 343.825 228.3 343.879 231.516 342.333ZM104.16 346.276C105.164 345.199 104.339 344.024 101.775 342.876C98.6857 341.494 97.6534 341.36 97.3166 342.3C96.7861 343.781 97.3043 344.365 100.388 345.758C103.069 346.968 103.462 347.022 104.16 346.276ZM219.09 347.923C221.58 346.89 222.063 346.474 222.063 345.361C222.063 343.626 221.165 343.561 217.718 345.046C215.729 345.903 214.862 346.589 214.753 347.394C214.517 349.124 215.813 349.282 219.09 347.923ZM117.036 350.083C117.036 348.97 116.608 348.608 114.353 347.814C112.878 347.294 111.42 346.771 111.113 346.65C110.304 346.332 109.301 347.84 109.659 348.839C109.992 349.768 113.942 351.408 115.85 351.408C116.765 351.408 117.036 351.104 117.036 350.083ZM206.986 352.297C208.878 351.691 209.286 351.329 209.286 350.253C209.286 348.568 208.041 348.403 204.686 349.642C202.759 350.354 202.09 350.889 201.967 351.818C201.831 352.847 202.041 353.049 203.245 353.041C204.037 353.037 205.721 352.702 206.986 352.297ZM130.069 353.633C130.069 352.493 129.699 352.197 127.513 351.591C123.588 350.501 122.658 350.619 122.658 352.207C122.658 353.328 123.023 353.661 124.83 354.188C126.025 354.536 127.692 354.854 128.536 354.893C129.838 354.954 130.069 354.765 130.069 353.633ZM193.636 355.698C196.306 355.038 197.199 353.997 196.2 352.706C195.879 352.293 195.473 351.982 195.296 352.016C189.443 353.133 188.281 353.749 188.878 355.415C189.267 356.5 190.173 356.554 193.636 355.698ZM143.415 356.642C143.604 356.114 143.441 355.383 143.044 354.976C142.654 354.577 140.929 354.083 139.211 353.878C136.508 353.557 136.041 353.636 135.743 354.47C135.197 355.993 136.483 356.843 139.91 357.227C142.622 357.531 143.127 357.447 143.415 356.642ZM179.027 357.702C182.534 357.702 183.84 357.045 183.305 355.549C182.865 354.323 177.23 354.344 176.079 355.576C174.642 357.116 175.455 357.702 179.027 357.702ZM156.729 357.666C156.898 357.194 156.797 356.551 156.504 356.238C156.212 355.925 154.492 355.541 152.682 355.386C149.871 355.144 149.343 355.242 149.049 356.061C148.43 357.788 149.654 358.523 153.146 358.523C155.648 358.523 156.494 358.321 156.729 357.666ZM166.214 358.956C169.384 358.71 170.511 358.025 170.017 356.644C169.562 355.375 162.769 355.403 162.313 356.677C161.689 358.417 163.034 359.202 166.214 358.956Z" fill="white"/>
</svg>
